<svg xmlns="http://www.w3.org/2000/svg" width="32" height="32" viewBox="0 0 24 24">
  <defs>
    <linearGradient id="gradient" x1="0%" y1="0%" x2="100%" y2="100%">
      <stop offset="0%" style="stop-color:#1353d8"/>
      <stop offset="100%" style="stop-color:#0047c5"/>
    </linearGradient>
  </defs>
  <rect width="24" height="24" rx="6" fill="url(#gradient)"/>
  <path d="M15 21v-2H9v2H7v-2c0-1.1.9-2 2-2h6c1.1 0 2 .9 2 2v2h-2zm-3-4c-1.66 0-3-1.34-3-3h2c0 .55.45 1 1 1s1-.45 1-1h2c0 1.66-1.34 3-3 3zm4-5h4V6h-4v1h-2V5c0-.55.45-1 1-1h6c.55 0 1 .45 1 1v8c0 .55-.45 1-1 1h-6c-.55 0-1-.45-1-1v-2h2v1zm-8 0H4V6h4v1h2V5c0-.55-.45-1-1-1H3c-.55 0-1 .45-1 1v8c0 .55.45 1 1 1h6c.55 0 1-.45 1-1v-2H8v1z" fill="white" transform="translate(0, 1) scale(0.85)" transform-origin="center"/>
</svg>
